# xmcd
# 
# Track frame offsets:
#     150
#     15750
#     27312
#     47090
#     67697
#     78830
#     92365
#     102535
#     120540
#     134722
#     143710
#     161797
#     171685
#     187147
#     203465
#     214747
# 
# Disc length: 3156
# 
# Revision: 12
# Processed by: cddbd v1.5.2PL0 Copyright (c) Steve Scherf et al.
# Submitted via: fre:ac v1.0.17
# 
DISCID=d80c5210
DTITLE=Frederick Loewe, Alan Jay Lerner - My Fair Lady
DYEAR=1964
DGENRE=Soundtrack
TTITLE0=Overture
TTITLE1=Why Can't The English?
TTITLE2=Wouldn't It Be Loverly
TTITLE3=I'm Just An Ordinary Man
TTITLE4=With A Little Bit Of Luck
TTITLE5=Just You Wait
TTITLE6=The Rain In Spain
TTITLE7=I Could Have Danced All Night
TTITLE8=Ascot Gavotte
TTITLE9=On The Street Where You Live
TTITLE10=You Did It
TTITLE11=Show Me
TTITLE12=Get Me To The Church On Time
TTITLE13=A Hymn To Him
TTITLE14=Without You
TTITLE15=I've Grown Accustomed To Her Face
EXTD=
EXTT0=
EXTT1=
EXTT2=
EXTT3=
EXTT4=
EXTT5=
EXTT6=
EXTT7=
EXTT8=
EXTT9=
EXTT10=
EXTT11=
EXTT12=
EXTT13=
EXTT14=
EXTT15=
PLAYORDER=
